<?xml version="1.0" encoding="utf-8"?>
<!-- Generator: Adobe Illustrator 16.0.0, SVG Export Plug-In . SVG Version: 6.00 Build 0)  -->
<!DOCTYPE svg PUBLIC "-//W3C//DTD SVG 1.1//EN" "http://www.w3.org/Graphics/SVG/1.1/DTD/svg11.dtd">
<svg version="1.1" id="Layer_1" xmlns="http://www.w3.org/2000/svg" xmlns:xlink="http://www.w3.org/1999/xlink" x="0px" y="0px"
	 width="17px" height="14px" viewBox="0 0 17 14" enable-background="new 0 0 17 14" xml:space="preserve">
<path fill="#00B6F1" d="M17,1.657c-0.625,0.281-1.298,0.471-2.003,0.556c0.721-0.437,1.272-1.13,1.533-1.956
	c-0.675,0.405-1.421,0.7-2.216,0.857C13.68,0.429,12.773,0,11.77,0C9.844,0,8.282,1.582,8.282,3.534c0,0.277,0.031,0.547,0.09,0.806
	C5.474,4.192,2.904,2.785,1.184,0.646c-0.3,0.522-0.472,1.13-0.472,1.777c0,1.226,0.616,2.308,1.551,2.941
	c-0.572-0.019-1.109-0.177-1.58-0.442c0,0.015,0,0.029,0,0.045c0,1.712,1.203,3.141,2.798,3.465C3.188,8.516,2.88,8.557,2.562,8.557
	c-0.225,0-0.443-0.021-0.656-0.062c0.444,1.403,1.732,2.425,3.258,2.454c-1.193,0.947-2.697,1.514-4.332,1.514
	c-0.281,0-0.559-0.018-0.832-0.051C1.543,13.414,3.377,14,5.347,14c6.415,0,9.922-5.386,9.922-10.056
	c0-0.154-0.002-0.306-0.01-0.458C15.939,2.988,16.532,2.366,17,1.657z"/>
</svg>
